<svg id="Layer_1" data-name="Layer 1" xmlns="http://www.w3.org/2000/svg" viewBox="0 0 32 32"><defs><style>.cls-1{fill:#231f20;}</style></defs><title>Artboard 1</title><path class="cls-1" d="M8.67,4.46A.37.37,0,0,1,9,4.7L11.82,10a.84.84,0,0,1-.16.88l-1.28,1.28a1.53,1.53,0,0,0-.39.93s0,1.93,3.56,5.51,5.46,3.56,5.5,3.56h0a1.54,1.54,0,0,0,.93-.39l1.51-1.51a.79.79,0,0,1,.55-.21.71.71,0,0,1,.32.07l5.12,3a.37.37,0,0,1,.1.63l-3.5,3.5a1.88,1.88,0,0,1-.92.46,3.15,3.15,0,0,1-.38,0c-1.31,0-5.87-.48-11.87-6.49C3.74,14.11,4.43,9,4.43,9a1.87,1.87,0,0,1,.46-.92l3.5-3.49a.4.4,0,0,1,.28-.13m0-1.3h0a1.69,1.69,0,0,0-1.2.51L4,7.17a3.12,3.12,0,0,0-.82,1.67c0,.23-.68,5.82,6.84,13.34C16.18,28.38,21,29,22.77,29a4.4,4.4,0,0,0,.55,0A3.14,3.14,0,0,0,25,28.19l3.5-3.5A1.66,1.66,0,0,0,28.1,22L23,19l0,0,0,0a2,2,0,0,0-.91-.21,2.07,2.07,0,0,0-1.46.59l-1.48,1.48-.06,0c-.34-.07-1.91-.51-4.57-3.17s-3.1-4.23-3.17-4.57l0-.05,1.26-1.26A2.14,2.14,0,0,0,13,9.47l0,0,0,0L10.15,4.12a1.65,1.65,0,0,0-1.48-1Z"/></svg>