<svg id="Layer_1" data-name="Layer 1" xmlns="http://www.w3.org/2000/svg" viewBox="0 0 32 32"><defs><style>.cls-1{fill:#231f20;}</style></defs><title>Artboard 1</title><path class="cls-1" d="M22.77,28.55c-1.72,0-6.37-.65-12.44-6.72C3,14.48,3.61,9.13,3.64,8.9a2.63,2.63,0,0,1,.68-1.38L7.82,4a1.2,1.2,0,0,1,.84-.36,1.15,1.15,0,0,1,1,.67l2.82,5.3a1.66,1.66,0,0,1-.3,1.81l-1.31,1.31-.05.09-.09.23,0,.14c.09.45.6,2.12,3.31,4.83s4.37,3.21,4.82,3.3l.15,0,.17-.07.14-.08,1.53-1.53A1.57,1.57,0,0,1,22,19.27a1.52,1.52,0,0,1,.68.16l5.13,3a1.17,1.17,0,0,1,.28,1.89l-3.5,3.5a2.65,2.65,0,0,1-1.38.68A4,4,0,0,1,22.77,28.55Z"/></svg>